<?xml version="1.0" encoding="UTF-8" standalone="no"?>
<svg
   viewBox="0 0 1600 853.33333"
   width="300"
   height="160"
   fill-rule="nonzero"
   version="1.1"
   id="svg353"
   sodipodi:docname="icons8-microsoft-onedrive-2019 (1).svg"
   inkscape:version="1.2.2 (732a01da63, 2022-12-09)"
   xmlns:inkscape="http://www.inkscape.org/namespaces/inkscape"
   xmlns:sodipodi="http://sodipodi.sourceforge.net/DTD/sodipodi-0.dtd"
   xmlns="http://www.w3.org/2000/svg"
   xmlns:svg="http://www.w3.org/2000/svg">
  <sodipodi:namedview
     id="namedview355"
     pagecolor="#505050"
     bordercolor="#eeeeee"
     borderopacity="1"
     inkscape:showpageshadow="0"
     inkscape:pageopacity="0"
     inkscape:pagecheckerboard="0"
     inkscape:deskcolor="#505050"
     showgrid="false"
     inkscape:zoom="4"
     inkscape:cx="118"
     inkscape:cy="98.5"
     inkscape:window-width="1280"
     inkscape:window-height="971"
     inkscape:window-x="1272"
     inkscape:window-y="-8"
     inkscape:window-maximized="1"
     inkscape:current-layer="svg353" />
  <defs
     id="defs336">
    <linearGradient
       x1="24.5"
       y1="7.0320001"
       x2="24.5"
       y2="22.851999"
       gradientUnits="userSpaceOnUse"
       id="color-1">
      <stop
         offset="0"
         stop-color="#0571bf"
         id="stop316" />
      <stop
         offset="1"
         stop-color="#0268ba"
         id="stop318" />
    </linearGradient>
    <linearGradient
       x1="14.228"
       y1="14.219"
       x2="14.228"
       y2="32.761002"
       gradientUnits="userSpaceOnUse"
       id="color-2">
      <stop
         offset="0"
         stop-color="#1684da"
         id="stop321" />
      <stop
         offset="1"
         stop-color="#107cd4"
         id="stop323" />
    </linearGradient>
    <linearGradient
       x1="38.228001"
       y1="18.746"
       x2="38.228001"
       y2="34.097"
       gradientUnits="userSpaceOnUse"
       id="color-3">
      <stop
         offset="0"
         stop-color="#138cdd"
         id="stop326" />
      <stop
         offset="1"
         stop-color="#0c7dd4"
         id="stop328" />
    </linearGradient>
    <linearGradient
       x1="17.129999"
       y1="24.083"
       x2="31.145"
       y2="41.333"
       gradientUnits="userSpaceOnUse"
       id="color-4">
      <stop
         offset="0"
         stop-color="#27a7ea"
         id="stop331" />
      <stop
         offset="1"
         stop-color="#1c94e3"
         id="stop333" />
    </linearGradient>
  </defs>
  <g
     fill="#ffffff"
     fill-rule="nonzero"
     stroke="none"
     stroke-width="1"
     stroke-linecap="butt"
     stroke-linejoin="miter"
     stroke-miterlimit="10"
     stroke-dasharray="none"
     stroke-dashoffset="0"
     font-family="none"
     font-weight="none"
     font-size="none"
     text-anchor="none"
     style="mix-blend-mode:normal"
     id="g339"
     transform="scale(6.25,3.3333333)">
    <path
       d="M 0,256 V 0 h 256 v 256 z"
       id="bgRectangle" />
  </g>
  <g
     fill="none"
     fill-rule="nonzero"
     stroke="none"
     stroke-width="1"
     stroke-linecap="butt"
     stroke-linejoin="miter"
     stroke-miterlimit="10"
     stroke-dasharray="none"
     stroke-dashoffset="0"
     font-family="none"
     font-weight="none"
     font-size="none"
     text-anchor="none"
     style="mix-blend-mode:normal"
     id="g351"
     transform="matrix(3.3333247,0,0,3.3333247,387.51971,22.159094)">
    <g
       transform="scale(5.33333)"
       id="g349">
      <path
         d="M 24.5,7 C 16.492,7 10,13.492 10,21.5 10,29.508 16.492,36 24.5,36 32.508,36 39,29.508 39,21.5 39,13.492 32.508,7 24.5,7 Z"
         fill="url(#color-1)"
         id="path341"
         style="fill:url(#color-1)" />
      <path
         d="M 16.155,14.972 C 14.835,14.467 13.402,14.191 11.905,14.191 5.33,14.191 0,19.521 0,26.096 0,28.572 0.757,30.87 2.05,32.774 2.111,32.748 18.495,25.885 28.456,21.886 22.952,18.568 17.903,15.641 16.155,14.972 Z"
         fill="url(#color-2)"
         id="path343"
         style="fill:url(#color-2)" />
      <path
         d="m 48,28.373 c 0,-5.317 -4.31,-9.627 -9.627,-9.627 -0.997,0 -1.958,0.152 -2.863,0.433 -0.996,0.31 -3.652,1.342 -7.054,2.708 8.377,5.05 17.79,10.996 18.252,11.288 C 47.525,31.76 48,30.123 48,28.373 Z"
         fill="url(#color-3)"
         id="path345"
         style="fill:url(#color-3)" />
      <path
         d="M 46.709,33.175 C 46.246,32.883 36.834,26.937 28.457,21.887 18.495,25.885 2.111,32.748 2.05,32.774 2.467,33.388 5.627,38 11.904,38 c 5.03,0 16.176,0 26.354,0 5.411,0 7.89,-3.854 8.451,-4.825 z"
         fill="url(#color-4)"
         id="path347"
         style="fill:url(#color-4)" />
    </g>
  </g>
</svg>
